<svg width="150" height="40" viewBox="0 0 150 40" fill="none" xmlns="http://www.w3.org/2000/svg">
<g filter="url(#filter0_b_582_34779)">
<path fill-rule="evenodd" clip-rule="evenodd" d="M4.51894 6.48657C4.09049 6.48657 3.74316 6.8323 3.74316 7.25877V32.7414C3.74316 33.1679 4.09049 33.5136 4.51894 33.5136H12.8201C13.1045 33.5136 13.3661 33.3587 13.5019 33.1099L19.9199 21.345L19.9568 21.2838C20.2199 20.8476 20.8663 20.8828 21.08 21.345L26.8608 33.0813C26.9911 33.3459 27.2614 33.5136 27.5574 33.5136H36.4809C36.9094 33.5136 37.2567 33.1679 37.2567 32.7414V7.25877C37.2567 6.8323 36.9094 6.48657 36.4809 6.48657H4.51894ZM18.6539 10.0731C19.2332 10.0731 19.6081 10.6821 19.3452 11.1959L8.75472 31.8852C8.64557 32.0984 8.42546 32.2327 8.18503 32.2327C7.83192 32.2327 7.54566 31.9478 7.54566 31.5963V10.8453C7.54566 10.4188 7.89299 10.0731 8.32143 10.0731H18.6539ZM33.0701 32.2327C32.8309 32.2327 32.6115 32.1002 32.5009 31.889L21.671 11.2021C21.4019 10.6881 21.7766 10.0731 22.359 10.0731H32.9362C33.3647 10.0731 33.712 10.4188 33.712 10.8453V31.5938C33.712 31.9466 33.4246 32.2327 33.0701 32.2327Z" fill="white"/>
</g>
<path d="M46.7081 25.5L50.6854 14.3775H52.9207L56.8979 25.5H54.8091L53.8687 22.625H49.7296L48.7892 25.5H46.7081ZM51.7799 16.3585L50.2306 21.0911H53.3677L51.8261 16.3585H51.7799ZM58.4003 25.5V14.3775H60.3196V25.5H58.4003ZM62.4078 28.1978V17.3297H64.3271V18.7402H64.3656C64.8358 17.7613 65.7299 17.1601 66.9015 17.1601C68.9749 17.1601 70.2852 18.7787 70.2852 21.4148V21.4225C70.2852 24.0432 68.9749 25.6619 66.9246 25.6619C65.7607 25.6619 64.8281 25.0761 64.3656 24.1203H64.3271V28.1978H62.4078ZM66.3311 24.0432C67.5567 24.0432 68.3274 23.0335 68.3274 21.4225V21.4148C68.3274 19.7808 67.5567 18.7787 66.3311 18.7787C65.1441 18.7787 64.3116 19.8116 64.3116 21.4148V21.4225C64.3116 23.0181 65.1441 24.0432 66.3311 24.0432ZM72.0266 25.5V14.3775H73.9459V18.7017H73.9921C74.416 17.7228 75.287 17.1601 76.5126 17.1601C78.27 17.1601 79.3953 18.4396 79.3953 20.4128V25.5H77.4761V20.7905C77.4761 19.5341 76.844 18.7787 75.7418 18.7787C74.655 18.7787 73.9459 19.6035 73.9459 20.7905V25.5H72.0266ZM83.8113 25.6387C82.1772 25.6387 81.075 24.629 81.075 23.1722V23.1568C81.075 21.7077 82.2004 20.8367 84.1813 20.7134L86.3164 20.5824V20.0197C86.3164 19.195 85.7768 18.694 84.8056 18.694C83.8961 18.694 83.3411 19.1179 83.2178 19.7191L83.2024 19.7885H81.4219L81.4296 19.696C81.5452 18.2469 82.8016 17.1601 84.875 17.1601C86.9176 17.1601 88.2356 18.2392 88.2356 19.881V25.5H86.3164V24.2436H86.2701C85.7999 25.0992 84.8904 25.6387 83.8113 25.6387ZM82.9866 23.0951C82.9866 23.7657 83.5415 24.1742 84.3817 24.1742C85.4839 24.1742 86.3164 23.442 86.3164 22.4708V21.8542L84.4511 21.9698C83.503 22.0315 82.9866 22.44 82.9866 23.0874V23.0951ZM96.3816 25.5L93.3986 14.3775H95.4644L97.399 22.7714H97.4376L99.6651 14.3775H101.469L103.696 22.7714H103.735L105.67 14.3775H107.735L104.752 25.5H102.833L100.59 17.5224H100.544L98.3009 25.5H96.3816ZM110.656 25.6387C109.022 25.6387 107.92 24.629 107.92 23.1722V23.1568C107.92 21.7077 109.045 20.8367 111.026 20.7134L113.161 20.5824V20.0197C113.161 19.195 112.621 18.694 111.65 18.694C110.741 18.694 110.186 19.1179 110.062 19.7191L110.047 19.7885H108.267L108.274 19.696C108.39 18.2469 109.646 17.1601 111.72 17.1601C113.762 17.1601 115.08 18.2392 115.08 19.881V25.5H113.161V24.2436H113.115C112.645 25.0992 111.735 25.6387 110.656 25.6387ZM109.831 23.0951C109.831 23.7657 110.386 24.1742 111.226 24.1742C112.329 24.1742 113.161 23.442 113.161 22.4708V21.8542L111.296 21.9698C110.348 22.0315 109.831 22.44 109.831 23.0874V23.0951ZM117.138 25.5V14.3775H119.057V25.5H117.138ZM121.199 25.5V14.3775H123.118V25.5H121.199ZM128.798 25.6619C126.347 25.6619 124.867 24.0355 124.867 21.438V21.4302C124.867 18.8558 126.37 17.1601 128.706 17.1601C131.041 17.1601 132.49 18.8019 132.49 21.2684V21.885H126.771C126.802 23.3187 127.588 24.1665 128.837 24.1665C129.793 24.1665 130.417 23.6578 130.602 23.1106L130.617 23.0566H132.413L132.39 23.1414C132.136 24.3978 130.933 25.6619 128.798 25.6619ZM128.729 18.6631C127.712 18.6631 126.949 19.3491 126.794 20.6055H130.625C130.486 19.3106 129.746 18.6631 128.729 18.6631ZM137.222 25.6619C135.511 25.6619 134.702 24.9682 134.702 23.2878V18.8096H133.546V17.3297H134.702V15.2562H136.652V17.3297H138.171V18.8096H136.652V23.126C136.652 23.9276 137.007 24.182 137.708 24.182C137.893 24.182 138.04 24.1588 138.171 24.1511V25.5925C137.947 25.6233 137.608 25.6619 137.222 25.6619ZM148.313 18.4165V18.4704C148.313 20.8444 146.456 22.702 144.09 22.702H144.036C141.662 22.702 139.804 20.8444 139.804 18.4704V18.4165C139.804 16.0502 141.662 14.1926 144.036 14.1926H144.09C146.456 14.1926 148.313 16.0502 148.313 18.4165ZM147.358 18.4165C147.358 16.5897 145.916 15.1483 144.09 15.1483H144.036C142.201 15.1483 140.76 16.5897 140.76 18.4165V18.4704C140.76 20.3049 142.201 21.7463 144.036 21.7463H144.09C145.916 21.7463 147.358 20.3049 147.358 18.4704V18.4165ZM142.363 20.6055V16.2891H144.259C145.307 16.2891 145.916 16.8055 145.916 17.7305V17.7382C145.916 18.2854 145.6 18.771 145.107 18.9637L146.047 20.6055H144.899L144.082 19.1333H143.373V20.6055H142.363ZM143.38 18.3163H144.159C144.606 18.3163 144.883 18.085 144.883 17.7305C144.883 17.3759 144.591 17.1447 144.144 17.1447H143.38V18.3163Z" fill="white"/>
<defs>
<filter id="filter0_b_582_34779" x="-96.2568" y="-93.5134" width="233.514" height="227.027" filterUnits="userSpaceOnUse" color-interpolation-filters="sRGB">
<feFlood flood-opacity="0" result="BackgroundImageFix"/>
<feGaussianBlur in="BackgroundImageFix" stdDeviation="50"/>
<feComposite in2="SourceAlpha" operator="in" result="effect1_backgroundBlur_582_34779"/>
<feBlend mode="normal" in="SourceGraphic" in2="effect1_backgroundBlur_582_34779" result="shape"/>
</filter>
</defs>
</svg>
