<svg width="52" height="52" viewBox="0 0 52 52" fill="none" xmlns="http://www.w3.org/2000/svg">
<g id="Light themae" filter="url(#filter0_b_582_34783)">
<rect width="52" height="52" rx="26" fill="#767680" fill-opacity="0.12"/>
<path id="image 1 (Traced)" fill-rule="evenodd" clip-rule="evenodd" d="M25.2013 14.0056C24.7851 14.0307 24.604 14.0476 24.3568 14.0844C24.2936 14.0938 24.2259 14.1036 24.2065 14.1061C23.8702 14.1497 23.2254 14.3138 22.8093 14.4616C22.7606 14.4788 22.7109 14.4961 22.6987 14.5C22.6733 14.5081 22.5026 14.5745 22.4113 14.6117C22.1557 14.716 21.7478 14.9125 21.577 15.0138C21.5461 15.0321 21.5178 15.0471 21.5178 15.0471C21.5071 15.0471 21.2572 15.1997 21.0942 15.3057C20.0497 15.9851 19.1846 16.9031 18.5881 17.9651C18.5256 18.0762 18.3303 18.4609 18.3302 18.4729C18.3302 18.4764 18.3238 18.491 18.316 18.5053C18.3083 18.5196 18.2966 18.545 18.2901 18.5617C18.2836 18.5784 18.2657 18.6214 18.2502 18.6572C17.7595 19.793 17.5708 21.205 17.7513 22.3913C17.8139 22.8034 17.867 23.0522 17.9608 23.3738C17.9803 23.4406 17.9992 23.507 18.0027 23.5213C18.0109 23.5547 18.1129 23.8521 18.1395 23.9205C18.1951 24.0631 18.2171 24.1175 18.2465 24.1852C18.2641 24.2257 18.2837 24.2726 18.29 24.2893C18.4512 24.7179 19.0056 25.6085 19.3703 26.0249C19.3807 26.0369 19.424 26.0876 19.4664 26.1377C19.5088 26.1879 19.5822 26.2699 19.6294 26.32C19.8603 26.5649 20.1667 26.9946 20.3688 27.357C20.4821 27.5601 20.5115 27.6152 20.5867 27.7649C20.6251 27.8413 20.6604 27.9105 20.6651 27.9188C20.6793 27.9438 20.8634 28.3491 20.8986 28.4331C20.9167 28.4761 20.939 28.5288 20.9483 28.5503C20.9576 28.5717 20.9873 28.6459 21.0143 28.7152C21.0413 28.7844 21.0688 28.8547 21.0754 28.8714C21.0819 28.8881 21.0981 28.931 21.1114 28.9668C21.1247 29.0026 21.1409 29.0456 21.1475 29.0623C21.1973 29.1885 21.4269 29.8804 21.4542 29.9865C21.4566 29.996 21.4747 30.0585 21.4942 30.1253C21.5138 30.1922 21.5404 30.2859 21.5534 30.3336C21.5664 30.3814 21.5845 30.4477 21.5936 30.4811C21.6425 30.6596 21.6984 30.8982 21.7522 31.158C21.7611 31.201 21.7794 31.2879 21.793 31.3511L21.8176 31.4661H25.5657C28.5565 31.4661 29.3145 31.4639 29.3173 31.4553C29.3192 31.4493 29.3248 31.2667 29.3298 31.0496C29.3433 30.4646 29.4022 30.09 29.552 29.635C29.5606 29.6088 29.5785 29.5541 29.5916 29.5135C29.6048 29.473 29.623 29.4202 29.6319 29.3964C29.6409 29.3725 29.6622 29.3159 29.6793 29.2705C29.7067 29.1975 29.7499 29.0907 29.8126 28.9408C30.1418 28.1532 30.8493 27.0459 31.5348 26.2453C31.7111 26.0395 31.7577 25.9842 31.8158 25.9121C31.8523 25.8667 31.8998 25.8062 31.9213 25.7776C31.9429 25.7489 31.971 25.7119 31.9838 25.6952C31.9967 25.6785 32.0305 25.6316 32.0591 25.591C32.0877 25.5505 32.1234 25.4997 32.1386 25.4782C32.2018 25.3885 32.4172 25.0487 32.4172 25.0387C32.4172 25.0387 32.4268 25.0207 32.4386 25.0029C32.5294 24.8654 32.768 24.3815 32.8687 24.1309C32.8884 24.082 32.9086 24.0322 32.9138 24.0203C33.0094 23.7984 33.1573 23.3158 33.2383 22.9615C33.3693 22.3881 33.4357 21.6153 33.3997 21.0827C33.3767 20.7419 33.3722 20.6894 33.3545 20.5552C33.3443 20.4778 33.3281 20.3657 33.3185 20.306C33.3089 20.2464 33.299 20.1839 33.2965 20.1672C33.292 20.1367 33.2733 20.046 33.2382 19.8852C33.2278 19.8374 33.2035 19.7378 33.1843 19.6639C33.1651 19.5899 33.1456 19.5137 33.141 19.4946C33.1218 19.4152 33.0101 19.0758 32.9597 18.9436C32.9053 18.8012 32.9019 18.7927 32.8393 18.6442C32.8293 18.6203 32.8122 18.5813 32.8014 18.5574C32.7907 18.5335 32.7697 18.4867 32.7548 18.4533C32.5946 18.0934 32.2237 17.4668 32.0116 17.1976C31.9939 17.1751 31.9675 17.1403 31.9529 17.1202C31.8768 17.0153 31.5472 16.6175 31.5151 16.5918C31.5122 16.5894 31.4865 16.5621 31.4581 16.5311C30.7826 15.7925 29.8675 15.1383 28.9155 14.7135C28.0967 14.3481 27.3281 14.144 26.3818 14.0405C26.0895 14.0086 25.4609 13.99 25.2013 14.0056ZM26.1342 15.2197C26.5058 15.2529 26.7766 15.2954 27.1423 15.3781C27.2056 15.3924 27.2772 15.4097 27.3015 15.4164C27.3258 15.4232 27.3962 15.4425 27.4578 15.4593C28.0125 15.6105 28.7091 15.9145 29.1674 16.2052C29.1917 16.2207 29.2465 16.2554 29.2891 16.2825C30.139 16.8221 30.9023 17.6149 31.3855 18.4598C31.3985 18.4824 31.4186 18.5176 31.4302 18.5379C32.2008 19.8862 32.3955 21.5772 31.9525 23.0744C31.8808 23.3168 31.8453 23.4177 31.7391 23.681C31.6488 23.9047 31.4329 24.3399 31.3635 24.4382C31.3545 24.4508 31.3472 24.4633 31.3472 24.4658C31.3472 24.4878 31.0874 24.8723 30.9535 25.0486C30.8677 25.1616 30.6108 25.4714 30.5672 25.5146C30.5146 25.5667 30.1698 26.0041 30.0281 26.1984C29.9811 26.2629 29.935 26.3254 29.9255 26.3373C29.8682 26.4096 29.4826 26.9857 29.4607 27.0316C29.4573 27.0388 29.4429 27.0622 29.4288 27.0837C29.2028 27.4265 28.8516 28.0959 28.6614 28.5459C28.6183 28.6481 28.5562 28.8017 28.544 28.8366C28.5398 28.8486 28.5221 28.8974 28.5045 28.9451C28.4387 29.1241 28.3712 29.3298 28.3406 29.4441C28.2458 29.7981 28.2087 29.9648 28.1717 30.2013L28.1612 30.2685H25.4799H22.7985L22.7782 30.1926C22.7671 30.1508 22.7422 30.06 22.7228 29.9908C22.7035 29.9216 22.6847 29.8533 22.681 29.839C22.6774 29.8246 22.6595 29.7641 22.6413 29.7045C22.623 29.6448 22.6062 29.5882 22.6037 29.5786C22.5379 29.3192 22.2618 28.5444 22.0795 28.1077C22.0447 28.0242 22.0091 27.9382 22.0005 27.9168C21.8778 27.6109 21.5033 26.8771 21.3197 26.5829C21.3054 26.56 21.2799 26.5178 21.263 26.4891C21.2112 26.4011 20.9877 26.0755 20.8909 25.9468C20.7656 25.7804 20.6465 25.6374 20.5329 25.5171C20.1156 25.0751 19.7008 24.4573 19.4495 23.9031C19.4365 23.8745 19.4204 23.8393 19.4137 23.825C19.4071 23.8107 19.391 23.7736 19.378 23.7426C19.365 23.7116 19.3469 23.6686 19.3379 23.6471C19.2859 23.5237 19.2003 23.2773 19.1359 23.0657C19.0165 22.6735 18.9314 22.144 18.9123 21.6759C18.8821 20.9314 18.9785 20.2554 19.2155 19.5486C19.2658 19.3988 19.2785 19.3644 19.3447 19.1996C19.722 18.2608 20.3976 17.3641 21.2322 16.6946C21.4214 16.5428 21.5555 16.4454 21.7525 16.3165C22.1998 16.024 22.6386 15.8044 23.163 15.6109C23.2451 15.5805 23.4261 15.5208 23.53 15.4898C23.5616 15.4804 23.6133 15.4649 23.6449 15.4554C23.6765 15.4459 23.7183 15.4345 23.7378 15.4301C23.7572 15.4257 23.8229 15.4096 23.8837 15.3943C24.0128 15.3619 24.1672 15.329 24.2713 15.3116C24.3118 15.3049 24.3775 15.2935 24.4172 15.2863C24.5828 15.2564 24.9393 15.2184 25.2234 15.2003C25.3781 15.1904 25.9399 15.2024 26.1342 15.2197ZM22.4025 31.932C21.5422 32.0433 21.4354 33.187 22.2604 33.4522L22.3317 33.4751H25.5241H28.7164L28.7881 33.4518C29.5591 33.2009 29.5354 32.1548 28.7541 31.9502L28.681 31.9311L25.555 31.9298C23.8357 31.9291 22.4171 31.9301 22.4025 31.932ZM23.0701 33.8876C22.2051 34.0401 22.2233 35.2783 23.0926 35.4185C23.2307 35.4408 27.9154 35.4346 28.009 35.412C28.8027 35.2205 28.8372 34.1734 28.0587 33.9061L27.9913 33.883L25.5506 33.8818C24.2082 33.8811 23.092 33.8837 23.0701 33.8876ZM23.7378 35.8405C22.9325 36.0096 22.8943 37.0939 23.6847 37.3488L23.7555 37.3716H25.5241H27.2927L27.3634 37.3488C27.7285 37.231 27.9294 36.965 27.9294 36.5992C27.9294 36.2113 27.685 35.915 27.3031 35.8397C27.1691 35.8133 23.8639 35.8141 23.7378 35.8405Z" fill="#8A8A8A"/>
<rect x="0.5" y="0.5" width="51" height="51" rx="25.5" stroke="#3C3C43" stroke-opacity="0.36"/>
</g>
<defs>
<filter id="filter0_b_582_34783" x="-30" y="-30" width="112" height="112" filterUnits="userSpaceOnUse" color-interpolation-filters="sRGB">
<feFlood flood-opacity="0" result="BackgroundImageFix"/>
<feGaussianBlur in="BackgroundImageFix" stdDeviation="15"/>
<feComposite in2="SourceAlpha" operator="in" result="effect1_backgroundBlur_582_34783"/>
<feBlend mode="normal" in="SourceGraphic" in2="effect1_backgroundBlur_582_34783" result="shape"/>
</filter>
</defs>
</svg>
